<mxfile host="www.draw.io" modified="2019-11-29T07:48:56.130Z" agent="Mozilla/5.0 (Windows NT 10.0; Win64; x64) AppleWebKit/537.36 (KHTML, like Gecko) Chrome/78.0.3904.97 Safari/537.36 OPR/65.0.3467.48" etag="xnbpxgLjM4x1DLNWWUyn" version="12.3.3" type="github" pages="1">
  <diagram id="C_pFJfPf-g4NJKi51Iua" name="Page-1">
    <mxGraphModel dx="936" dy="588" grid="1" gridSize="10" guides="1" tooltips="1" connect="1" arrows="1" fold="1" page="1" pageScale="1" pageWidth="850" pageHeight="1100" math="0" shadow="0">
      <root>
        <mxCell id="0"/>
        <mxCell id="1" parent="0"/>
        <mxCell id="DjZgmxBgNp-TTPZ--37d-7" style="edgeStyle=orthogonalEdgeStyle;rounded=0;orthogonalLoop=1;jettySize=auto;html=1;" parent="1" source="fnXHt6ibqTjwRK5xo47p-1" target="DjZgmxBgNp-TTPZ--37d-1" edge="1">
          <mxGeometry relative="1" as="geometry"/>
        </mxCell>
        <mxCell id="fnXHt6ibqTjwRK5xo47p-1" value="MULAI" style="html=1;dashed=0;whitespace=wrap;shape=mxgraph.dfd.start" parent="1" vertex="1">
          <mxGeometry x="320" width="80" height="30" as="geometry"/>
        </mxCell>
        <mxCell id="fnXHt6ibqTjwRK5xo47p-2" value="SELESAI" style="html=1;dashed=0;whitespace=wrap;shape=mxgraph.dfd.start" parent="1" vertex="1">
          <mxGeometry x="320" y="480" width="80" height="30" as="geometry"/>
        </mxCell>
        <mxCell id="DjZgmxBgNp-TTPZ--37d-10" style="edgeStyle=orthogonalEdgeStyle;rounded=0;orthogonalLoop=1;jettySize=auto;html=1;" parent="1" source="fnXHt6ibqTjwRK5xo47p-14" target="DjZgmxBgNp-TTPZ--37d-9" edge="1">
          <mxGeometry relative="1" as="geometry"/>
        </mxCell>
        <mxCell id="fnXHt6ibqTjwRK5xo47p-14" value="Load&lt;br&gt;Dictionary" style="shape=process;whiteSpace=wrap;html=1;backgroundOutline=1;" parent="1" vertex="1">
          <mxGeometry x="300" y="160" width="120" height="60" as="geometry"/>
        </mxCell>
        <mxCell id="DjZgmxBgNp-TTPZ--37d-8" style="edgeStyle=orthogonalEdgeStyle;rounded=0;orthogonalLoop=1;jettySize=auto;html=1;entryX=0.5;entryY=0;entryDx=0;entryDy=0;" parent="1" source="DjZgmxBgNp-TTPZ--37d-1" target="fnXHt6ibqTjwRK5xo47p-14" edge="1">
          <mxGeometry relative="1" as="geometry"/>
        </mxCell>
        <mxCell id="DjZgmxBgNp-TTPZ--37d-1" value="Open&lt;br&gt;File" style="html=1;dashed=0;whitespace=wrap;" parent="1" vertex="1">
          <mxGeometry x="310" y="70" width="100" height="50" as="geometry"/>
        </mxCell>
        <mxCell id="DjZgmxBgNp-TTPZ--37d-12" style="edgeStyle=orthogonalEdgeStyle;rounded=0;orthogonalLoop=1;jettySize=auto;html=1;" parent="1" source="DjZgmxBgNp-TTPZ--37d-9" target="DjZgmxBgNp-TTPZ--37d-11" edge="1">
          <mxGeometry relative="1" as="geometry"/>
        </mxCell>
        <mxCell id="DjZgmxBgNp-TTPZ--37d-9" value="Process&lt;br&gt;Query" style="shape=process;whiteSpace=wrap;html=1;backgroundOutline=1;" parent="1" vertex="1">
          <mxGeometry x="300" y="270" width="120" height="60" as="geometry"/>
        </mxCell>
        <mxCell id="DjZgmxBgNp-TTPZ--37d-15" style="edgeStyle=orthogonalEdgeStyle;rounded=0;orthogonalLoop=1;jettySize=auto;html=1;" parent="1" source="DjZgmxBgNp-TTPZ--37d-11" target="fnXHt6ibqTjwRK5xo47p-2" edge="1">
          <mxGeometry relative="1" as="geometry"/>
        </mxCell>
        <mxCell id="DjZgmxBgNp-TTPZ--37d-11" value="Close&lt;br&gt;File" style="html=1;dashed=0;whitespace=wrap;" parent="1" vertex="1">
          <mxGeometry x="310" y="380" width="100" height="50" as="geometry"/>
        </mxCell>
      </root>
    </mxGraphModel>
  </diagram>
</mxfile>
